<mxfile host="app.diagrams.net" modified="2021-07-20T18:32:06.755Z" agent="5.0 (Windows)" etag="bbBmPMyMmy_n_oGgfElQ" version="14.8.0" type="github">
  <diagram id="C5RBs43oDa-KdzZeNtuy" name="Page-1">
    <mxGraphModel dx="1778" dy="989" grid="0" gridSize="10" guides="1" tooltips="1" connect="1" arrows="1" fold="1" page="1" pageScale="1" pageWidth="1920" pageHeight="1200" math="0" shadow="0">
      <root>
        <mxCell id="WIyWlLk6GJQsqaUBKTNV-0" />
        <mxCell id="WIyWlLk6GJQsqaUBKTNV-1" parent="WIyWlLk6GJQsqaUBKTNV-0" />
        <mxCell id="WIyWlLk6GJQsqaUBKTNV-3" value="User input" style="rounded=1;whiteSpace=wrap;html=1;fontSize=12;glass=0;strokeWidth=1;shadow=0;" parent="WIyWlLk6GJQsqaUBKTNV-1" vertex="1">
          <mxGeometry x="770" y="49" width="120" height="40" as="geometry" />
        </mxCell>
        <mxCell id="8aOL3JUY5wuznuy4mqsb-8" value="" style="endArrow=classic;html=1;rounded=0;fillColor=#cdeb8b;strokeColor=#36393d;dashed=1;" edge="1" parent="WIyWlLk6GJQsqaUBKTNV-1">
          <mxGeometry width="50" height="50" relative="1" as="geometry">
            <mxPoint x="826.38" y="89" as="sourcePoint" />
            <mxPoint x="826" y="145" as="targetPoint" />
          </mxGeometry>
        </mxCell>
        <mxCell id="8aOL3JUY5wuznuy4mqsb-9" value="is animal &amp;lt;= 4 months?" style="text;html=1;align=center;verticalAlign=middle;resizable=0;points=[];autosize=1;strokeColor=none;" vertex="1" parent="WIyWlLk6GJQsqaUBKTNV-1">
          <mxGeometry x="1053" y="69" width="150" height="20" as="geometry" />
        </mxCell>
        <mxCell id="8aOL3JUY5wuznuy4mqsb-10" value="Yes" style="text;html=1;align=center;verticalAlign=middle;resizable=0;points=[];autosize=1;strokeColor=none;" vertex="1" parent="WIyWlLk6GJQsqaUBKTNV-1">
          <mxGeometry x="582" y="175" width="30" height="18" as="geometry" />
        </mxCell>
        <mxCell id="8aOL3JUY5wuznuy4mqsb-11" value="Pen 1" style="rounded=1;whiteSpace=wrap;html=1;" vertex="1" parent="WIyWlLk6GJQsqaUBKTNV-1">
          <mxGeometry x="436" y="343" width="120" height="60" as="geometry" />
        </mxCell>
        <mxCell id="8aOL3JUY5wuznuy4mqsb-12" value="if age &amp;lt; = 4 months" style="rhombus;whiteSpace=wrap;html=1;" vertex="1" parent="WIyWlLk6GJQsqaUBKTNV-1">
          <mxGeometry x="766" y="145" width="120" height="106" as="geometry" />
        </mxCell>
        <mxCell id="8aOL3JUY5wuznuy4mqsb-13" value="" style="endArrow=classic;html=1;shadow=0;strokeWidth=1;dashed=1;exitX=0;exitY=0.5;exitDx=0;exitDy=0;" edge="1" parent="WIyWlLk6GJQsqaUBKTNV-1" source="8aOL3JUY5wuznuy4mqsb-12">
          <mxGeometry width="50" height="50" relative="1" as="geometry">
            <mxPoint x="541" y="361" as="sourcePoint" />
            <mxPoint x="490" y="341" as="targetPoint" />
            <Array as="points">
              <mxPoint x="490" y="198" />
            </Array>
          </mxGeometry>
        </mxCell>
        <mxCell id="8aOL3JUY5wuznuy4mqsb-15" value="Calf" style="text;html=1;align=center;verticalAlign=middle;resizable=0;points=[];autosize=1;strokeColor=none;" vertex="1" parent="WIyWlLk6GJQsqaUBKTNV-1">
          <mxGeometry x="449" y="254" width="32" height="18" as="geometry" />
        </mxCell>
        <mxCell id="8aOL3JUY5wuznuy4mqsb-16" value="" style="endArrow=classic;html=1;shadow=0;dashed=1;strokeColor=#000000;strokeWidth=1;" edge="1" parent="WIyWlLk6GJQsqaUBKTNV-1">
          <mxGeometry width="50" height="50" relative="1" as="geometry">
            <mxPoint x="886" y="197" as="sourcePoint" />
            <mxPoint x="1196" y="265" as="targetPoint" />
            <Array as="points">
              <mxPoint x="1196" y="191" />
            </Array>
          </mxGeometry>
        </mxCell>
        <mxCell id="8aOL3JUY5wuznuy4mqsb-17" value="No" style="text;html=1;align=center;verticalAlign=middle;resizable=0;points=[];autosize=1;strokeColor=none;" vertex="1" parent="WIyWlLk6GJQsqaUBKTNV-1">
          <mxGeometry x="1015" y="175" width="26" height="18" as="geometry" />
        </mxCell>
      </root>
    </mxGraphModel>
  </diagram>
</mxfile>
